# xmcd
#
# Track frame offsets: 
#        150
#        19795
#        37197
#        55713
#        85507
#        104782
#        121682
#        142476
#        166412
#        187923
#        205025
#        222949
#
# Disc length: 3423 seconds
#
# Revision: 0
# Processed by: cddbd v1.5.2PL0 Copyright (c) Steve Scherf et al.
# Submitted via: ExactAudioCopy v0.95b4
#
DISCID=a80d5d0c
DTITLE=Mark Knopfler - Kill To Get Crimson
DYEAR=2007
DGENRE=Folk/Rock
TTITLE0=True Love Will Never Fade
TTITLE1=The Scaffolder's Wife
TTITLE2=The Fizzy and the Still
TTITLE3=Heart Full of Holes
TTITLE4=We Can Get Wild
TTITLE5=Secondary Waltz
TTITLE6=Punish the Monkey
TTITLE7=Lat It All Go
TTITLE8=Behind With The Rent
TTITLE9=The Fish and The Bird
TTITLE10=Madame Geneva's
TTITLE11=In The Sky
EXTD=
EXTT0=
EXTT1=
EXTT2=
EXTT3=
EXTT4=
EXTT5=
EXTT6=
EXTT7=
EXTT8=
EXTT9=
EXTT10=
EXTT11=
PLAYORDER=
